<?xml version="1.0" encoding="iso-8859-1"?>
<!-- Generator: Adobe Illustrator 17.1.0, SVG Export Plug-In . SVG Version: 6.00 Build 0)  -->
<!DOCTYPE svg PUBLIC "-//W3C//DTD SVG 1.1//EN" "http://www.w3.org/Graphics/SVG/1.1/DTD/svg11.dtd">
<svg version="1.1" id="Layer_1" xmlns="http://www.w3.org/2000/svg" xmlns:xlink="http://www.w3.org/1999/xlink" x="0px" y="0px"
	 width="81.787px" height="100px" viewBox="0 0 81.787 100" style="enable-background:new 0 0 81.787 100;" xml:space="preserve">
<g>
	<path d="M0.033,79.574c0,5.299,2.65,7.116,7.416,7.116c5.109,0,7.395-2.157,7.395-7.095v-8.699H9.801v9.211
		c0,1.666-0.535,2.821-2.352,2.821c-2.072,0-2.372-1.303-2.372-2.821v-9.211H0.033V79.574L0.033,79.574L0.033,79.574z"/>
	<polygon points="21.994,86.284 21.994,81.069 21.887,78.676 21.672,76.41 21.716,76.41 24.516,86.284 28.02,86.284 30.82,76.41 
		30.864,76.41 30.606,79.188 30.542,81.582 30.542,86.284 35.074,86.284 35.074,70.896 28.981,70.896 26.268,80.492 23.554,70.896 
		17.462,70.896 17.462,86.284 21.994,86.284 21.994,86.284 	"/>
	<path d="M42.711,81.049l1.559-5.514l1.625,5.514H42.711L42.711,81.049z M46.879,70.896h-5.131l-5.514,15.388h4.938l0.576-2.03
		h5.023l0.597,2.03h5.024L46.879,70.896L46.879,70.896z"/>
	<path d="M66.216,75.363c-0.362-2.693-2.308-4.873-6.583-4.873c-3.848,0-6.668,1.645-6.668,4.916c0,5.876,8.85,4.274,8.85,6.604
		c0,0.726-0.834,1.133-2.095,1.133c-0.493,0-1.026-0.128-1.433-0.385c-0.428-0.256-0.727-0.664-0.834-1.216h-4.83
		c0.107,2.776,2.758,5.148,6.818,5.148c4.231,0,7.201-1.73,7.201-5.301c0-5.599-8.847-4.167-8.847-6.474
		c0-0.558,0.491-0.877,1.602-0.877c0.491,0,0.941,0.085,1.303,0.277c0.363,0.191,0.642,0.513,0.727,1.047H66.216L66.216,75.363
		L66.216,75.363z"/>
	<path d="M81.359,75.363c-0.363-2.693-2.309-4.873-6.584-4.873c-3.846,0-6.667,1.645-6.667,4.916c0,5.876,8.849,4.274,8.849,6.604
		c0,0.726-0.834,1.133-2.094,1.133c-0.492,0-1.025-0.128-1.434-0.385c-0.428-0.256-0.727-0.664-0.834-1.216h-4.828
		c0.105,2.776,2.756,5.148,6.816,5.148c4.232,0,7.203-1.73,7.203-5.301c0-5.599-8.848-4.167-8.848-6.474
		c0-0.558,0.49-0.877,1.602-0.877c0.492,0,0.941,0.085,1.305,0.277c0.363,0.191,0.641,0.513,0.727,1.047H81.359L81.359,75.363
		L81.359,75.363z"/>
	<path d="M3.649,61.457c0-12.318,32.446-36.438,32.446-44.305c0-2.652-3.151-3.422-6.405-3.422c-6.825,0-25.83,8.211-25.83,20.356
		c0,4.447,2.835,6.928,8.19,8.125c-4.049,2.221-9.786,0.892-12.048-2.941v28.035h7.227C5.079,66.066,3.649,63.741,3.649,61.457
		L3.649,61.457z"/>
	<path d="M32.314,11.849c3.759,0,6.466,0.715,8.338,1.76L28.874,0.086H0.002v31.929C3.05,24.851,13.369,11.849,32.314,11.849
		L32.314,11.849z"/>
	<path d="M16.549,67.305h13.574v-7.723C25.71,63.061,21.072,65.916,16.549,67.305L16.549,67.305z"/>
	<path style="fill:#0469B1;" d="M52.91,0L40.857,13.838c2.136,1.381,2.999,3.219,2.999,4.768c0,8.723-33.075,36.606-33.075,44.303
		c0,1.712,0.84,2.053,2.729,2.053c15.226,0,41.489-35.482,49.357-45.404c3.15-0.514,6.883-0.118,10.242-0.46
		C66.42,26.364,49,53.928,49,62.994c0,2.31,1.68,3.508,4.2,3.508c4.936,0,11.446-7.527,11.446-16.251
		c1.785,1.283,2.625,3.166,2.625,5.046c0,4.9-3.619,9.283-8.451,11.573h22.963V0H52.91L52.91,0z"/>
	<polygon style="fill:#0469B1;" points="0,89.525 3.31,89.525 3.31,97.133 8.063,97.133 8.063,99.756 0,99.756 0,89.525 	"/>
	<path style="fill:#0469B1;" d="M18.052,97.449c0.842,0,2.136-0.53,2.136-2.809c0-2.278-1.294-2.809-2.136-2.809
		c-0.843,0-2.137,0.53-2.137,2.809C15.915,96.919,17.209,97.449,18.052,97.449L18.052,97.449z M18.052,89.281
		c3.264,0,5.446,2.236,5.446,5.359c0,3.124-2.182,5.359-5.446,5.359c-3.265,0-5.446-2.235-5.446-5.359
		C12.606,91.518,14.787,89.281,18.052,89.281L18.052,89.281z"/>
	<polygon style="fill:#0469B1;" points="39.067,99.756 35.848,99.756 34.689,93.522 34.659,93.522 33.531,99.756 30.297,99.756 
		27.378,89.525 30.627,89.525 31.936,95.844 31.966,95.844 33.26,89.525 36.179,89.525 37.442,95.93 37.473,95.93 38.811,89.525 
		42.076,89.525 39.067,99.756 	"/>
	<polygon style="fill:#0469B1;" points="46.437,89.525 55.328,89.525 55.328,92.147 49.746,92.147 49.746,93.423 54.816,93.423 
		54.816,95.858 49.746,95.858 49.746,97.133 55.494,97.133 55.494,99.756 46.437,99.756 46.437,89.525 	"/>
	<polygon style="fill:#0469B1;" points="60.638,89.525 63.947,89.525 63.947,97.133 68.701,97.133 68.701,99.756 60.638,99.756 
		60.638,89.525 	"/>
	<polygon style="fill:#0469B1;" points="73.621,89.525 76.93,89.525 76.93,97.133 81.684,97.133 81.684,99.756 73.621,99.756 
		73.621,89.525 	"/>
</g>
</svg>
